<?xml version="1.0" encoding="UTF-8" standalone="no"?>
<!DOCTYPE svg PUBLIC "-//W3C//DTD SVG 1.1//EN" "http://www.w3.org/Graphics/SVG/1.1/DTD/svg11.dtd">
<svg width="100%" height="100%" viewBox="0 0 360 360" version="1.1" xmlns="http://www.w3.org/2000/svg" xmlns:xlink="http://www.w3.org/1999/xlink" xml:space="preserve" xmlns:serif="http://www.serif.com/" style="fill-rule:evenodd;clip-rule:evenodd;stroke-linejoin:round;stroke-miterlimit:1.41421;">
    <rect x="-13.941" y="-6.835" width="414.946" height="366.835" style="fill:rgb(95,69,87);"/>
    <g transform="matrix(0.99694,-0.0781706,0.0781706,0.99694,-10.1011,10.6701)">
        <path d="M155.154,282.528L109.675,282.318C109.615,273.424 108.883,165.845 108.815,155.928C108.761,147.867 103.974,145.71 97.111,145.321C93.807,145.134 84.932,145.256 77.901,145.063L77.93,122.099C101.325,115.692 118.978,105.303 127.473,89.955L154.466,90.777L155.154,282.528ZM218.331,281.38L176.217,281.38L176.217,242.412L218.331,242.412L218.331,281.38ZM219.072,151.259L172.84,151.259C172.44,128.778 175.895,112.653 184.216,101.651C193.096,89.909 206.526,83.551 228.34,84.005C247.493,84.404 263.48,92.176 271.859,107.279C278.124,118.571 280.228,134.008 280.125,155.298C279.978,185.684 279.476,201.032 271.859,211.149C262.027,224.209 236.03,232.55 223.061,217.658C221.054,215.354 221.017,214.88 219.838,213.16L218.331,232.38L176.217,232.38L176.217,179L218.081,179.71C218.081,179.71 217.907,189.593 224.43,190.095C228.753,190.427 232.032,187.708 232.096,183.344C234.343,163.267 234.23,141.418 232.96,118.698C232.96,113.984 228.368,112.417 226.262,112.417C226.262,112.417 220.124,112.117 219.945,117.677L219.072,151.259Z" style="fill:white;"/>
    </g>
</svg>
